<svg xmlns="http://www.w3.org/2000/svg" xmlns:xlink="http://www.w3.org/1999/xlink" width="44.057" height="45.377" viewBox="0 0 44.057 45.377">
  <defs>
    <clipPath id="clip-path">
      <rect id="Rectangle_4" data-name="Rectangle 4" width="44.057" height="45.377" fill="#cdcdcd"/>
    </clipPath>
  </defs>
  <g id="Group_9" data-name="Group 9" transform="translate(-8)">
    <g id="Group_8" data-name="Group 8" transform="translate(8)" clip-path="url(#clip-path)">
      <path id="Path_11" data-name="Path 11" d="M18.707,160.225c-1.134.395-2.054.762-3,1.035a9.1,9.1,0,0,0-5.862,5c-.477.975-.933,1.967-1.49,2.9a7.639,7.639,0,0,1-6.126,3.677,1.56,1.56,0,0,1-1.149-.6A5.381,5.381,0,0,1,.453,166.8c1.776-4.732,7.933-9.065,12.992-9.135a5.857,5.857,0,0,1,5.261,2.561" transform="translate(0 -130.627)" fill="#cdcdcd"/>
      <path id="Path_12" data-name="Path 12" d="M48.812,2.84c-.181,1.13-.275,2.074-.488,2.99a9.442,9.442,0,0,0,2.132,8.524,8.44,8.44,0,0,1,1.727,8.639,1.5,1.5,0,0,1-1.492,1.154,5.772,5.772,0,0,1-5.611-3.134A15.741,15.741,0,0,1,43.626,7.223,6.093,6.093,0,0,1,48.812,2.84" transform="translate(-35.351 -2.353)" fill="#cdcdcd"/>
      <path id="Path_13" data-name="Path 13" d="M165.465,91.071a19.232,19.232,0,0,1-1.519,1.747,9.861,9.861,0,0,0-3.264,8.552,15.736,15.736,0,0,1-.092,3.633,7.381,7.381,0,0,1-3.371,4.914,1.7,1.7,0,0,1-1.4.064,5.042,5.042,0,0,1-3.127-4.606,15.273,15.273,0,0,1,6.946-14.029,5.411,5.411,0,0,1,5.827-.276" transform="translate(-126.488 -74.858)" fill="#cdcdcd"/>
      <path id="Path_14" data-name="Path 14" d="M87.613,21.088c.2-1.02.34-1.785.511-2.541a6.511,6.511,0,0,0-1.519-6.323c-3.178-3.241-3.423-7.011-2.5-11.142.221-.986.66-1.169,1.519-1.05A6.39,6.39,0,0,1,90.054,2.76a14.011,14.011,0,0,1,1.5,14.556,6.76,6.76,0,0,1-3.944,3.772" transform="translate(-69.294 0)" fill="#cdcdcd"/>
      <path id="Path_15" data-name="Path 15" d="M185.291,118.117c.8-.694,1.366-1.154,1.9-1.647a6.963,6.963,0,0,0,2.263-6.842c-.9-4.456,1.317-7.6,4.316-10.407a1.407,1.407,0,0,1,1.307.1,6.569,6.569,0,0,1,2.5,5.748,14.14,14.14,0,0,1-6.6,12.048,7.036,7.036,0,0,1-5.682,1" transform="translate(-153.517 -82.108)" fill="#cdcdcd"/>
      <path id="Path_16" data-name="Path 16" d="M17.341,193.4c1.082-.314,1.956-.552,2.82-.822a6.5,6.5,0,0,0,4.572-4.451c1.33-4.449,4.753-6.308,8.847-7.36a1.384,1.384,0,0,1,1.144.635,6.17,6.17,0,0,1,.022,5.064,14.263,14.263,0,0,1-12.591,8.67,6.553,6.553,0,0,1-4.814-1.737" transform="translate(-14.367 -149.763)" fill="#cdcdcd"/>
    </g>
  </g>
</svg>
