<svg xmlns="http://www.w3.org/2000/svg" xmlns:xlink="http://www.w3.org/1999/xlink" width="67.585" height="79.936" viewBox="0 0 67.585 79.936">
  <defs>
    <clipPath id="clip-path">
      <rect id="Rectangle_3" data-name="Rectangle 3" width="67.585" height="79.936" fill="none"/>
    </clipPath>
  </defs>
  <g id="Group_4" data-name="Group 4" transform="translate(29 49)">
    <g id="Group_3" data-name="Group 3" transform="translate(-29 -49)" clip-path="url(#clip-path)">
      <path id="Path_2" data-name="Path 2" d="M53.842,100.277l-9.226-9.908c5.378,1.207,8.755,4.533,10.93,9.281A14.452,14.452,0,0,0,49.78,89.576c-4.453-3.2-9.761-5.437-11.917-11.278-.021,11.263,6.574,17.674,15.979,21.979" transform="translate(-23.441 -48.474)" fill="#ffffff"/>
      <path id="Path_3" data-name="Path 3" d="M31.835,122.409c4.78,1.255,9.586,2.285,12.648,6.975-.932-2.354-2.034-4.651-3.822-6.059s-4.228-2.038-6.45-2.81c-3.715-1.291-7.1-2.941-9.1-6.779,3.571,1.162,6.891,2.321,10.259,3.315,3.585,1.058,6.98,2.307,8.792,6.937-.526-6.06-3.633-9.746-9.32-11.1-5.452-1.3-9.9-3.845-12.934-8.684-.814-1.3-1.684-2.557-2.837-4.3-3.4,10.219,2.127,19.713,12.767,22.506" transform="translate(-11.187 -61.85)" fill="#ffffff"/>
      <path id="Path_4" data-name="Path 4" d="M76.2,15.953c.14.328.281.655.423,1,.029-.051.057-.1.087-.146.029.05.057.094.086.146.142-.344.283-.671.423-1,2.194-3.691,4.229-6.813,5.789-10.13,1.039-2.207-.988-6.239-2.584-5.788-1.442.407-2.491,2.232-3.7,3.424l-.013,0-.013,0C75.489,2.267,74.44.442,73,.035c-1.595-.451-3.622,3.58-2.584,5.788,1.56,3.317,3.6,6.439,5.79,10.13" transform="translate(-43.418 0)" fill="#ffffff"/>
      <path id="Path_5" data-name="Path 5" d="M82.973,27.53,76.586,38.707l-6.379-10.02c-2.645,4.211.265,12.179,6.371,18.18,1.081-6.611,10.139-10.339,6.395-19.337" transform="translate(-42.859 -17.044)" fill="#ffffff"/>
      <path id="Path_6" data-name="Path 6" d="M59.4,64.5c3.016,2.795,6.15,5.459,9.14,8.1,2.568-2.41,5.4-4.877,8.014-7.563,3.508-3.6,3.953-12.19.988-16.66l-9.326,18.7-9.96-17.028C55.035,54.837,55.535,60.917,59.4,64.5" transform="translate(-34.754 -29.949)" fill="#ffffff"/>
      <path id="Path_7" data-name="Path 7" d="M101.31,83.868,93.346,95.6c9.036-5.968,14.835-13.658,13.03-25.292-1.3,6.383-6.433,9.554-10.527,13.578-3.134,3.08-4.365,6.977-4.362,11.34,1.5-5.256,4.459-9.238,9.824-11.355" transform="translate(-56.639 -43.526)" fill="#ffffff"/>
      <path id="Path_8" data-name="Path 8" d="M110.057,130.017c-3.41,1.681-6.92,3.156-10.315,4.866-2.669,1.343-4.695,3.319-5.261,5.68l22.328-9.373c-5.561,7.388-15.885,6.175-22.308,13.177,4.319-1.457,7.766-2.553,11.163-3.786a82.379,82.379,0,0,0,9.575-3.8c5.019-2.578,9.031-6.282,10.389-12.108a12.531,12.531,0,0,0-3.255-12.358c-.561,9.249-5.395,14.292-12.316,17.705" transform="translate(-58.493 -69.533)" fill="#ffffff"/>
      <path id="Path_9" data-name="Path 9" d="M100.747,116.484c-2.423,1.017-3.717,3.6-5.971,5.91a4.961,4.961,0,0,0-.979,2.6c2.138-1.277,4.344-2.566,6.505-3.953,3.872-2.483,8.053-4.639,11.446-7.681,4.574-4.1,5.826-11.709,3.91-15.571-3.475,3.276-7.052,6.785-10.783,10.117-2.389,2.133-5.348,3.7-7.423,6.083a25.6,25.6,0,0,0-3.332,5.575,1.563,1.563,0,0,1,.228.1c3-4.253,2.595-4.921,7.784-6.415,2.91-1,6.111-3.163,6.374-2.921-2.006,2.082-5.092,5.039-7.759,6.158" transform="translate(-58.07 -60.542)" fill="#ffffff"/>
      <path id="Path_10" data-name="Path 10" d="M21.283,142.533c-3.507-1.058-6.487-.795-9.1-3.336a19.907,19.907,0,0,1-4.831-6.227,33.675,33.675,0,0,0,13.858,5.843c3.547.548,6.324,3.52,9.4,5.437a12.537,12.537,0,0,1,2.183,2.288,7.328,7.328,0,0,0-1.492-4.465c-3.042-3.988-7.314-6.095-12.014-7.2C10.411,132.78,3.381,128.711,1.5,118.5a6.2,6.2,0,0,0-.95,2.113c-2.173,8.262,2.344,17.631,10.036,21.235,3.953,1.853,8.33,2.792,12.257,4.689,3.32,1.6,6.259,4.009,9.391,6.021a10.487,10.487,0,0,0,1.806.743c-.033-1.054-.576-1.312-.727-1.719-2.091-5.645-6.89-7.5-12.026-9.046" transform="translate(0 -73.361)" fill="#ffffff"/>
    </g>
  </g>
</svg>
