<svg xmlns="http://www.w3.org/2000/svg" width="20" height="20" viewBox="0 0 20 20">
  <path id="Subtraction_1" data-name="Subtraction 1" d="M9-578H-1a5,5,0,0,1-5-5v-10a5,5,0,0,1,5-5H9a5,5,0,0,1,5,5v10A5,5,0,0,1,9-578ZM4-593a5,5,0,0,0-5,5,5,5,0,0,0,5,5,5,5,0,0,0,5-5,5.006,5.006,0,0,0-5-5Zm5.625-2.5a1.25,1.25,0,0,0-1.25,1.25A1.25,1.25,0,0,0,9.625-593a1.25,1.25,0,0,0,1.25-1.25A1.25,1.25,0,0,0,9.625-595.5ZM4-584.875A3.125,3.125,0,0,1,.875-588,3.125,3.125,0,0,1,4-591.125,3.125,3.125,0,0,1,7.125-588,3.125,3.125,0,0,1,4-584.875Z" transform="translate(6 598)"/>
</svg>
