<svg xmlns="http://www.w3.org/2000/svg" xmlns:xlink="http://www.w3.org/1999/xlink" width="172.299" height="79.936" viewBox="0 0 172.299 79.936">
  <defs>
    <clipPath id="clip-path">
      <rect id="Rectangle_3" data-name="Rectangle 3" width="67.585" height="79.936" fill="none"/>
    </clipPath>
  </defs>
  <g id="Group_25" data-name="Group 25" transform="translate(-140 -48)">
    <g id="Group_4" data-name="Group 4" transform="translate(169 97)">
      <g id="Group_3" data-name="Group 3" transform="translate(-29 -49)" clip-path="url(#clip-path)">
        <path id="Path_2" data-name="Path 2" d="M53.842,100.277l-9.226-9.908c5.378,1.207,8.755,4.533,10.93,9.281A14.452,14.452,0,0,0,49.78,89.576c-4.453-3.2-9.761-5.437-11.917-11.278-.021,11.263,6.574,17.674,15.979,21.979" transform="translate(-23.441 -48.474)" fill="#362d28"/>
        <path id="Path_3" data-name="Path 3" d="M31.835,122.409c4.78,1.255,9.586,2.285,12.648,6.975-.932-2.354-2.034-4.651-3.822-6.059s-4.228-2.038-6.45-2.81c-3.715-1.291-7.1-2.941-9.1-6.779,3.571,1.162,6.891,2.321,10.259,3.315,3.585,1.058,6.98,2.307,8.792,6.937-.526-6.06-3.633-9.746-9.32-11.1-5.452-1.3-9.9-3.845-12.934-8.684-.814-1.3-1.684-2.557-2.837-4.3-3.4,10.219,2.127,19.713,12.767,22.506" transform="translate(-11.187 -61.85)" fill="#362d28"/>
        <path id="Path_4" data-name="Path 4" d="M76.2,15.953c.14.328.281.655.423,1,.029-.051.057-.1.087-.146.029.05.057.094.086.146.142-.344.283-.671.423-1,2.194-3.691,4.229-6.813,5.789-10.13,1.039-2.207-.988-6.239-2.584-5.788-1.442.407-2.491,2.232-3.7,3.424l-.013,0-.013,0C75.489,2.267,74.44.442,73,.035c-1.595-.451-3.622,3.58-2.584,5.788,1.56,3.317,3.6,6.439,5.79,10.13" transform="translate(-43.418 0)" fill="#362d28"/>
        <path id="Path_5" data-name="Path 5" d="M82.973,27.53,76.586,38.707l-6.379-10.02c-2.645,4.211.265,12.179,6.371,18.18,1.081-6.611,10.139-10.339,6.395-19.337" transform="translate(-42.859 -17.044)" fill="#362d28"/>
        <path id="Path_6" data-name="Path 6" d="M59.4,64.5c3.016,2.795,6.15,5.459,9.14,8.1,2.568-2.41,5.4-4.877,8.014-7.563,3.508-3.6,3.953-12.19.988-16.66l-9.326,18.7-9.96-17.028C55.035,54.837,55.535,60.917,59.4,64.5" transform="translate(-34.754 -29.949)" fill="#362d28"/>
        <path id="Path_7" data-name="Path 7" d="M101.31,83.868,93.346,95.6c9.036-5.968,14.835-13.658,13.03-25.292-1.3,6.383-6.433,9.554-10.527,13.578-3.134,3.08-4.365,6.977-4.362,11.34,1.5-5.256,4.459-9.238,9.824-11.355" transform="translate(-56.639 -43.526)" fill="#362d28"/>
        <path id="Path_8" data-name="Path 8" d="M110.057,130.017c-3.41,1.681-6.92,3.156-10.315,4.866-2.669,1.343-4.695,3.319-5.261,5.68l22.328-9.373c-5.561,7.388-15.885,6.175-22.308,13.177,4.319-1.457,7.766-2.553,11.163-3.786a82.379,82.379,0,0,0,9.575-3.8c5.019-2.578,9.031-6.282,10.389-12.108a12.531,12.531,0,0,0-3.255-12.358c-.561,9.249-5.395,14.292-12.316,17.705" transform="translate(-58.493 -69.533)" fill="#362d28"/>
        <path id="Path_9" data-name="Path 9" d="M100.747,116.484c-2.423,1.017-3.717,3.6-5.971,5.91a4.961,4.961,0,0,0-.979,2.6c2.138-1.277,4.344-2.566,6.505-3.953,3.872-2.483,8.053-4.639,11.446-7.681,4.574-4.1,5.826-11.709,3.91-15.571-3.475,3.276-7.052,6.785-10.783,10.117-2.389,2.133-5.348,3.7-7.423,6.083a25.6,25.6,0,0,0-3.332,5.575,1.563,1.563,0,0,1,.228.1c3-4.253,2.595-4.921,7.784-6.415,2.91-1,6.111-3.163,6.374-2.921-2.006,2.082-5.092,5.039-7.759,6.158" transform="translate(-58.07 -60.542)" fill="#362d28"/>
        <path id="Path_10" data-name="Path 10" d="M21.283,142.533c-3.507-1.058-6.487-.795-9.1-3.336a19.907,19.907,0,0,1-4.831-6.227,33.675,33.675,0,0,0,13.858,5.843c3.547.548,6.324,3.52,9.4,5.437a12.537,12.537,0,0,1,2.183,2.288,7.328,7.328,0,0,0-1.492-4.465c-3.042-3.988-7.314-6.095-12.014-7.2C10.411,132.78,3.381,128.711,1.5,118.5a6.2,6.2,0,0,0-.95,2.113c-2.173,8.262,2.344,17.631,10.036,21.235,3.953,1.853,8.33,2.792,12.257,4.689,3.32,1.6,6.259,4.009,9.391,6.021a10.487,10.487,0,0,0,1.806.743c-.033-1.054-.576-1.312-.727-1.719-2.091-5.645-6.89-7.5-12.026-9.046" transform="translate(0 -73.361)" fill="#362d28"/>
      </g>
    </g>
    <g id="Group_5" data-name="Group 5" transform="translate(-6 12.46)">
      <path id="Path_20" data-name="Path 20" d="M-17.344-1.461Q-19.545,1-25.983,3.527q-2.22,6.358-5.94,9.372t-7.027,3.014a3.26,3.26,0,0,1-2.445-.957,3.453,3.453,0,0,1-.933-2.517q0-5.2,10.117-8.722,1.8-10.66,2.647-14.572A27.69,27.69,0,0,1-27.6-17.026a31.3,31.3,0,0,1,3.427-5.224q2.316-2.966,2.907-3.912a8.618,8.618,0,0,1-3.876,1.229,6.124,6.124,0,0,1-2.293-.567,6.315,6.315,0,0,0-2.411-.567,4.34,4.34,0,0,0-3.132,1.335,4.152,4.152,0,0,0-1.359,3.037,2.9,2.9,0,0,0,1.205,2.4q1.205.934,1.205,1.312,0,.355-1.064,1.536t-1.7,1.182q-.615,0-1.56-1.17a4.531,4.531,0,0,1-.945-2.943q0-3.569,3.38-7.056t6.831-3.486a5.788,5.788,0,0,1,2.458.626,5.471,5.471,0,0,0,2.245.626,4.362,4.362,0,0,0,2.742-1.253q1.844.213,1.844.709a7.5,7.5,0,0,1-1.079,2.044,19.7,19.7,0,0,0-1.945,4.372,42.8,42.8,0,0,0-1.482,6.96l-.354,2.364A128.256,128.256,0,0,1-25.2,1.187a16,16,0,0,0,7.859-5.366Zm-15.411,7.3q-7.729,2.742-7.729,6.382a1.7,1.7,0,0,0,.461,1.217,1.545,1.545,0,0,0,1.17.485,4.694,4.694,0,0,0,3.3-1.9A14.754,14.754,0,0,0-32.755,5.843Zm40.632-7.3a49.75,49.75,0,0,1-5.413,4.68A5.663,5.663,0,0,1-.656,4.307q-3.735,0-3.522-6.595A24.394,24.394,0,0,1-8.539,2.7a6.519,6.519,0,0,1-4.125,1.607A4.3,4.3,0,0,1-16.2,2.357,7.783,7.783,0,0,1-17.651-2.43,12.836,12.836,0,0,1-15.7-9.19a16.028,16.028,0,0,1,5-5.2,10.26,10.26,0,0,1,5.389-1.985,4.18,4.18,0,0,1,4.136,2.718l4.831-2.671H4.981L2.9-9.4A29.936,29.936,0,0,0,1.285-2.24q0,2.032,1.441,2.032a3.225,3.225,0,0,0,2.032-.981q1.11-.981,3.118-2.99Zm-17.3,1.3q2.364,0,4.456-4.03a16.311,16.311,0,0,0,2.092-7.434,3.247,3.247,0,0,0-.591-2.068,1.918,1.918,0,0,0-1.584-.745q-2.364,0-4.479,4.018a16.068,16.068,0,0,0-2.115,7.4,3.235,3.235,0,0,0,.626,2.068A1.948,1.948,0,0,0-9.426-.161Zm38.5-1.3a7.026,7.026,0,0,1-2.2,1.347,5.518,5.518,0,0,1-1.725.4,5.47,5.47,0,0,1-3.4-1.324Q17.544,4.307,12.84,4.307A4.689,4.689,0,0,1,9,2.617,7.249,7.249,0,0,1,7.616-2.1a26.2,26.2,0,0,1,1.655-8.178l1.655-4.846,6.4-1.2L14.488-7.8a33.431,33.431,0,0,0-.846,3.309,15.429,15.429,0,0,0-.4,2.742A3.371,3.371,0,0,0,13.916.395a2.02,2.02,0,0,0,1.643.863q2.269,0,4.893-3.876a10.744,10.744,0,0,1-1.205-4.846,10.869,10.869,0,0,1,1.785-6.1q1.785-2.718,3.912-2.718,1.607,0,1.607,2.482,0,4.8-3.876,11.086A3.7,3.7,0,0,0,25.2-1.6q1.607,0,3.876-2.576Zm25.22,0a49.749,49.749,0,0,1-5.413,4.68,5.663,5.663,0,0,1-3.12,1.087q-3.735,0-3.522-6.595A24.394,24.394,0,0,1,37.883,2.7a6.519,6.519,0,0,1-4.125,1.607,4.3,4.3,0,0,1-3.534-1.95A7.783,7.783,0,0,1,28.771-2.43a12.836,12.836,0,0,1,1.95-6.76,16.028,16.028,0,0,1,5-5.2,10.26,10.26,0,0,1,5.389-1.985,4.18,4.18,0,0,1,4.136,2.718l4.831-2.671H51.4L49.319-9.4A29.936,29.936,0,0,0,47.708-2.24q0,2.032,1.441,2.032a3.225,3.225,0,0,0,2.032-.981q1.11-.981,3.118-2.99ZM37-.161q2.364,0,4.456-4.03a16.311,16.311,0,0,0,2.092-7.434,3.247,3.247,0,0,0-.591-2.068,1.918,1.918,0,0,0-1.584-.745q-2.364,0-4.479,4.018a16.068,16.068,0,0,0-2.115,7.4A3.235,3.235,0,0,0,35.4-.953,1.948,1.948,0,0,0,37-.161Z" transform="translate(264 77)" fill="#34322b"/>
      <path id="Path_21" data-name="Path 21" d="M-16.586-4.751a3.843,3.843,0,0,0,3.038-3.9c0-2.742-2.043-4.651-5.915-4.651h-4.759a.691.691,0,0,0-.726.726V4.793a.691.691,0,0,0,.726.726h4.812c4.49,0,6.936-1.855,6.936-5.242C-12.473-2.116-13.736-3.944-16.586-4.751Zm-6.99-7.339h4.113c3.011,0,4.57,1.4,4.57,3.522,0,2.285-1.559,3.28-4.57,3.28h-4.113Zm4.167,16.4h-4.167V-4.132h4.167c3.656,0,5.592,1.667,5.592,4.382C-13.817,2.992-15.7,4.309-19.409,4.309ZM-3.547-8.622a6.854,6.854,0,0,0-6.775,7.151A6.791,6.791,0,0,0-3.359,5.653a6.673,6.673,0,0,0,4.57-1.64c.323-.323.4-.484.4-.7A.536.536,0,0,0,1.05,2.75c-.188,0-.349.108-.672.4A5.609,5.609,0,0,1-3.359,4.471,5.454,5.454,0,0,1-8.951-.906H2.26a.793.793,0,0,0,.887-.833A6.738,6.738,0,0,0-3.547-8.622Zm0,1.21a5.434,5.434,0,0,1,5.4,5.323H-8.951A5.451,5.451,0,0,1-3.547-7.412Zm15.136-1.21A6.825,6.825,0,0,0,4.895-1.471a6.832,6.832,0,0,0,6.694,7.178A5.787,5.787,0,0,0,16.912,2.32V4.981a.673.673,0,1,0,1.344,0V-7.842a.672.672,0,0,0-.672-.7.689.689,0,0,0-.672.7v2.42A5.763,5.763,0,0,0,11.589-8.622ZM11.669,4.5A5.576,5.576,0,0,1,6.239-1.471a5.568,5.568,0,0,1,5.431-5.941c2.5,0,5.323,1.828,5.323,5.941C16.992,2.535,14.17,4.5,11.669,4.5ZM28.123-8.6a5.56,5.56,0,0,0-5.3,3.468V-7.842a.689.689,0,0,0-.672-.7.689.689,0,0,0-.672.7v12.8a.673.673,0,1,0,1.344,0V-2.923a5.236,5.236,0,0,1,5.108-4.436c2.1,0,4.194,1.183,4.194,4.49V4.954a.673.673,0,1,0,1.344,0V-2.869C33.473-7.251,30.569-8.6,28.123-8.6Zm12.958-.027c-2.742,0-4.624,1.613-4.624,3.737,0,1.64,1.1,2.984,3.549,3.6l2.312.591c1.506.376,2.688.968,2.688,2.473,0,1.8-1.909,2.635-3.925,2.635-1.774,0-3.307-.672-3.818-2.124-.134-.4-.3-.591-.645-.591a.628.628,0,0,0-.591.7,1.917,1.917,0,0,0,.188.7c.591,1.559,2.662,2.554,4.866,2.554,2.769,0,5.242-1.425,5.242-3.952,0-2.016-1.506-3.038-4.113-3.683l-1.747-.43c-1.828-.457-2.688-1.29-2.688-2.5,0-1.479,1.21-2.5,3.226-2.5a3.753,3.753,0,0,1,3.387,1.667c.3.484.457.645.753.645a.582.582,0,0,0,.618-.565,1.182,1.182,0,0,0-.188-.618A4.944,4.944,0,0,0,41.081-8.622Z" transform="translate(268.438 98.228)" fill="#34322b"/>
    </g>
  </g>
</svg>
